<svg width="63" height="63" viewBox="0 0 63 63" fill="none" xmlns="http://www.w3.org/2000/svg">
<path d="M15.75 23.625H11.8125C10.072 23.625 8.40282 22.9336 7.17211 21.7029C5.9414 20.4722 5.25 18.803 5.25 17.0625C5.25 15.322 5.9414 13.6528 7.17211 12.4221C8.40282 11.1914 10.072 10.5 11.8125 10.5H15.75M15.75 23.625V5.25H47.25V23.625M15.75 23.625C15.75 27.8022 17.4094 31.8082 20.3631 34.7619C23.3168 37.7156 27.3228 39.375 31.5 39.375C35.6772 39.375 39.6832 37.7156 42.6369 34.7619C45.5906 31.8082 47.25 27.8022 47.25 23.625M47.25 23.625H51.1875C52.928 23.625 54.5972 22.9336 55.8279 21.7029C57.0586 20.4722 57.75 18.803 57.75 17.0625C57.75 15.322 57.0586 13.6528 55.8279 12.4221C54.5972 11.1914 52.928 10.5 51.1875 10.5H47.25M10.5 57.75H52.5M26.25 38.4825V44.625C26.25 46.0688 25.0162 47.1975 23.7037 47.8012C20.6062 49.2187 18.375 53.13 18.375 57.75M36.75 38.4825V44.625C36.75 46.0688 37.9838 47.1975 39.2963 47.8012C42.3938 49.2187 44.625 53.13 44.625 57.75" stroke="white" stroke-width="2" stroke-linecap="round" stroke-linejoin="round"/>
</svg>
