<svg width="64" height="64" viewBox="0 0 64 64" fill="none" xmlns="http://www.w3.org/2000/svg">
<path d="M42.6667 5.33325V10.6666M47.7733 58.6666C47.7733 54.4231 46.0876 50.3535 43.087 47.3529C40.0865 44.3523 36.0168 42.6666 31.7733 42.6666C27.5299 42.6666 23.4602 44.3523 20.4596 47.3529C17.459 50.3535 15.7733 54.4231 15.7733 58.6666M21.3333 5.33325V10.6666M42.6667 31.9999C42.6667 37.891 37.891 42.6666 32 42.6666C26.109 42.6666 21.3333 37.891 21.3333 31.9999C21.3333 26.1089 26.109 21.3333 32 21.3333C37.891 21.3333 42.6667 26.1089 42.6667 31.9999ZM13.3333 10.6666H50.6667C53.6122 10.6666 56 13.0544 56 15.9999V53.3332C56 56.2788 53.6122 58.6666 50.6667 58.6666H13.3333C10.3878 58.6666 8 56.2788 8 53.3332V15.9999C8 13.0544 10.3878 10.6666 13.3333 10.6666Z" stroke="white" stroke-width="2" stroke-linecap="round" stroke-linejoin="round"/>
</svg>
