<svg width="64" height="64" viewBox="0 0 64 64" fill="none" xmlns="http://www.w3.org/2000/svg">
<path d="M13.3333 56H50.6667M30.832 8.70929C30.9471 8.50024 31.1162 8.32592 31.3217 8.2045C31.5271 8.08309 31.7614 8.01904 32 8.01904C32.2387 8.01904 32.4729 8.08309 32.6784 8.2045C32.8838 8.32592 33.0529 8.50024 33.168 8.70929L41.04 23.6533C41.2277 23.9993 41.4897 24.2995 41.8072 24.5323C42.1247 24.765 42.4898 24.9246 42.8763 24.9996C43.2628 25.0745 43.661 25.063 44.0425 24.9658C44.424 24.8685 44.7792 24.6881 45.0827 24.4373L56.488 14.6666C56.707 14.4886 56.9767 14.3845 57.2586 14.3696C57.5404 14.3546 57.8197 14.4294 58.0563 14.5833C58.2929 14.7372 58.4745 14.9621 58.5751 15.2258C58.6757 15.4895 58.69 15.7783 58.616 16.0506L51.0587 43.3733C50.9044 43.9324 50.5721 44.426 50.112 44.7792C49.652 45.1324 49.0893 45.326 48.5093 45.3306H15.4933C14.9129 45.3266 14.3496 45.1332 13.8891 44.78C13.4285 44.4267 13.0957 43.9328 12.9413 43.3733L5.38668 16.0533C5.31268 15.781 5.327 15.4922 5.42759 15.2285C5.52817 14.9648 5.70983 14.7398 5.94641 14.586C6.183 14.4321 6.4623 14.3573 6.74412 14.3722C7.02594 14.3872 7.29574 14.4912 7.51468 14.6693L18.9173 24.44C19.2208 24.6907 19.576 24.8712 19.9575 24.9684C20.339 25.0657 20.7373 25.0772 21.1237 25.0023C21.5102 24.9273 21.8753 24.7677 22.1928 24.5349C22.5103 24.3022 22.7723 24.002 22.96 23.656L30.832 8.70929Z" stroke="white" stroke-width="2" stroke-linecap="round" stroke-linejoin="round"/>
</svg>
