<svg width="64" height="64" viewBox="0 0 64 64" fill="none" xmlns="http://www.w3.org/2000/svg">
<path d="M31.8987 53.3334C26.4818 53.3334 21.7609 51.5645 17.736 48.0267C13.7111 44.4925 11.3814 40.0392 10.7467 34.6667H13.4427C14.168 39.2534 16.2578 43.0667 19.712 46.1067C23.1698 49.1467 27.232 50.6667 31.8987 50.6667C37.0987 50.6667 41.5094 48.8552 45.1307 45.2321C48.752 41.609 50.5636 37.1983 50.5654 32.0001C50.5654 26.8001 48.7538 22.3885 45.1307 18.7654C41.5076 15.1423 37.0969 13.3316 31.8987 13.3334C29.1396 13.3334 26.5458 13.9165 24.1174 15.0827C21.6907 16.249 19.5485 17.8543 17.6907 19.8987H24.3067V22.5654H13.232V11.4881H15.8987V17.8561C17.9609 15.593 20.3769 13.8294 23.1467 12.5654C25.9165 11.2996 28.8338 10.6667 31.8987 10.6667C34.8551 10.6667 37.6267 11.2232 40.2134 12.3361C42.8 13.449 45.0596 14.9716 46.992 16.9041C48.9245 18.8365 50.448 21.097 51.5627 23.6854C52.6756 26.2721 53.232 29.0436 53.232 32.0001C53.232 34.9565 52.6756 37.7281 51.5627 40.3147C50.4498 42.9014 48.9263 45.1619 46.992 47.0961C45.0596 49.0285 42.8 50.5512 40.2134 51.6641C37.6267 52.777 34.8551 53.3334 31.8987 53.3334ZM40.44 42.2774L30.7174 32.5547V18.6667H33.384V31.4454L42.328 40.3894L40.44 42.2774Z" fill="#FFF1F1"/>
</svg>
